<svg width="200" height="200" viewBox="0 0 200 200" fill="none" xmlns="http://www.w3.org/2000/svg">
<path d="M100 200C155.228 200 200 155.228 200 100C200 44.7715 155.228 0 100 0C44.7715 0 0 44.7715 0 100C0 155.228 44.7715 200 100 200Z" fill="#2E3148"/>
<path d="M100 158.025C132.046 158.025 158.025 132.046 158.025 99.9999C158.025 67.9537 132.046 41.9751 100 41.9751C67.9538 41.9751 41.9752 67.9537 41.9752 99.9999C41.9752 132.046 67.9538 158.025 100 158.025Z" fill="#1B1E36"/>
<path d="M100.206 12.7578C89.4112 12.7578 80.6584 51.9098 80.6584 100.207C80.6584 148.503 89.4112 187.655 100.206 187.655C111 187.655 119.753 148.503 119.753 100.207C119.753 51.9098 111 12.7578 100.206 12.7578ZM101.555 182.72C100.321 184.367 99.0864 183.131 99.0864 183.131C94.1152 177.371 91.6296 166.671 91.6296 166.671C82.9344 138.687 85.0041 78.605 85.0041 78.605C89.0905 30.9058 96.5241 19.6378 99.0537 17.1362C99.312 16.8809 99.6521 16.7249 100.014 16.6956C100.376 16.6663 100.737 16.7657 101.033 16.9762C104.703 19.577 107.782 30.4538 107.782 30.4538C116.872 64.1986 116.049 95.8858 116.049 95.8858C116.872 123.458 111.494 154.322 111.494 154.322C107.354 177.778 101.555 182.72 101.555 182.72Z" fill="#6F7390"/>
<path d="M176.058 56.6874C170.683 47.321 132.37 59.2138 90.4576 83.2474C48.5448 107.281 18.98 134.359 24.3504 143.721C29.7208 153.083 68.0376 141.195 109.95 117.161C151.863 93.1274 181.428 66.0498 176.058 56.6874ZM29.3088 142.436C27.2512 142.177 27.716 140.486 27.716 140.486C30.24 133.309 38.272 125.827 38.272 125.827C58.2264 104.359 111.375 76.2554 111.375 76.2554C154.778 56.0618 168.26 56.9138 171.68 57.8554C172.031 57.9534 172.336 58.1725 172.541 58.4738C172.746 58.7751 172.838 59.1393 172.8 59.5018C172.389 63.9818 164.466 72.0618 164.466 72.0618C139.737 96.749 111.84 111.807 111.84 111.807C88.3336 126.247 58.8856 136.934 58.8856 136.934C36.4784 145.008 29.3096 142.436 29.3096 142.436H29.3088Z" fill="#6F7390"/>
<path d="M175.868 144.033C181.284 134.691 151.794 107.489 110.028 83.275C68.2624 59.0606 29.9544 47.0206 24.5432 56.3782C19.132 65.7358 48.6176 92.9214 90.4072 117.136C132.197 141.35 170.457 153.391 175.868 144.033ZM28.132 59.9878C27.332 58.091 29.0208 57.6342 29.0208 57.6342C36.4976 56.2222 47 59.4398 47 59.4398C75.572 65.9462 126.52 97.8598 126.52 97.8598C165.746 125.309 171.762 137.399 172.664 140.831C172.756 141.183 172.72 141.556 172.563 141.884C172.407 142.213 172.139 142.475 171.808 142.625C167.718 144.498 156.762 141.708 156.762 141.708C122.997 132.654 95.9928 116.066 95.9928 116.066C71.7296 102.98 47.7376 82.8438 47.7376 82.8438C29.5072 67.4942 28.1376 60.0086 28.1376 60.0086L28.132 59.9878Z" fill="#6F7390"/>
<path d="M100 110.288C105.682 110.288 110.288 105.682 110.288 99.9999C110.288 94.318 105.682 89.7119 100 89.7119C94.3181 89.7119 89.712 94.318 89.712 99.9999C89.712 105.682 94.3181 110.288 100 110.288Z" fill="#B7B9C8"/>
<path d="M142.181 66.6664C145.476 66.6664 148.148 63.9027 148.148 60.4936C148.148 57.0845 145.476 54.3208 142.181 54.3208C138.885 54.3208 136.214 57.0845 136.214 60.4936C136.214 63.9027 138.885 66.6664 142.181 66.6664Z" fill="#B7B9C8"/>
<path d="M44.2384 87.6542C47.534 87.6542 50.2056 84.8905 50.2056 81.4814C50.2056 78.0723 47.534 75.3086 44.2384 75.3086C40.9428 75.3086 38.2712 78.0723 38.2712 81.4814C38.2712 84.8905 40.9428 87.6542 44.2384 87.6542Z" fill="#B7B9C8"/>
<path d="M87.86 163.374C91.1556 163.374 93.8272 160.611 93.8272 157.202C93.8272 153.792 91.1556 151.029 87.86 151.029C84.5644 151.029 81.8928 153.792 81.8928 157.202C81.8928 160.611 84.5644 163.374 87.86 163.374Z" fill="#B7B9C8"/>
</svg>
