<svg width="175" height="200" viewBox="0 0 175 200" fill="none" xmlns="http://www.w3.org/2000/svg">
<path fill-rule="evenodd" clip-rule="evenodd" d="M88.8319 5.32088C87.9244 4.48591 87.4562 4.4701 87.3775 4.4701C87.2988 4.4701 86.8306 4.48591 85.9234 5.32088C84.992 6.17797 83.8788 7.6568 82.6792 9.9386C80.2848 14.493 77.9934 21.3769 76.0181 30.2595C73.7971 40.2484 72.0422 52.4575 70.9349 66.1247C76.2827 68.7124 81.7821 71.5254 87.3762 74.5461C92.9712 71.525 98.4714 68.7115 103.82 66.1233C102.713 52.4569 100.958 40.2481 98.7369 30.2595C96.7618 21.3769 94.4702 14.493 92.076 9.9386C90.8765 7.6568 89.7632 6.17797 88.8319 5.32088ZM82.6957 77.1099C78.5875 74.927 74.54 72.862 70.5771 70.922C70.2767 75.3219 70.0427 79.8573 69.8802 84.5044C71.9762 83.2492 74.1029 81.9989 76.2581 80.7553C78.4134 79.5117 80.5602 78.2963 82.6957 77.1099ZM66.6204 64.0704C69.8299 26.5929 77.9132 0 87.3775 0C96.8418 0 104.925 26.5922 108.135 64.0693C142.215 48.109 169.3 41.8093 174.032 50.0006C178.765 58.1918 159.762 78.4838 128.891 100C159.762 121.516 178.765 141.808 174.032 149.999C169.3 158.191 142.215 151.891 108.135 135.931C104.925 173.408 96.8418 200 87.3775 200C77.9132 200 69.8299 173.407 66.6204 135.93C32.5387 151.891 5.45215 158.191 0.719874 149.999C-4.0124 141.808 14.9898 121.516 45.8612 100C14.9898 78.4838 -4.0124 58.192 0.719874 50.0006C5.45215 41.8091 32.5387 48.1095 66.6204 64.0704ZM49.8003 97.292C38.5095 89.4995 28.806 81.8753 21.26 74.958C14.5499 68.8072 9.73026 63.3816 6.98048 59.0322C5.60301 56.853 4.87841 55.1501 4.60149 53.9161C4.33172 52.7144 4.55209 52.3029 4.59054 52.2367C4.62898 52.1699 4.8764 51.7725 6.05405 51.4046C7.26298 51.0269 9.10176 50.8027 11.6794 50.9053C16.8241 51.1103 23.936 52.5691 32.6212 55.301C42.3882 58.3733 53.8459 62.9589 66.2431 68.8342C65.8117 74.7555 65.4999 80.9209 65.3205 87.2718C59.9049 90.6036 54.7172 93.9569 49.8003 97.292ZM49.8003 102.708C38.5095 110.5 28.806 118.125 21.26 125.042C14.5499 131.193 9.73026 136.618 6.98048 140.968C5.60301 143.147 4.87841 144.85 4.60149 146.084C4.33172 147.286 4.55209 147.697 4.59054 147.763C4.62876 147.83 4.87595 148.227 6.05405 148.595C7.26298 148.973 9.10176 149.197 11.6794 149.095C16.8241 148.89 23.936 147.431 32.6212 144.699C42.3882 141.627 53.8459 137.041 66.2431 131.166C65.8117 125.244 65.4999 119.079 65.3205 112.728C59.9049 109.396 54.7172 106.043 49.8003 102.708ZM65.202 107.396C61.2554 104.931 57.4417 102.46 53.7782 100C57.4417 97.5397 61.2554 95.069 65.202 92.6044C65.1622 95.0465 65.1421 97.5126 65.1421 100C65.1421 102.487 65.1622 104.954 65.202 107.396ZM69.7271 110.183C69.6511 106.837 69.6122 103.44 69.6122 100C69.6122 96.5598 69.6511 93.1628 69.7271 89.8171C72.588 88.0787 75.5116 86.3467 78.4921 84.6271C81.4741 82.9065 84.4382 81.2414 87.3762 79.634C90.3141 81.2414 93.2783 82.9065 96.2601 84.6271C99.2416 86.3474 102.166 88.08 105.028 89.8189C105.104 93.1639 105.143 96.5605 105.143 100C105.143 103.44 105.104 106.836 105.028 110.181C102.166 111.92 99.2416 113.653 96.2601 115.373C93.2783 117.093 90.3141 118.759 87.3762 120.366C84.4382 118.759 81.4741 117.093 78.4923 115.373C75.5116 113.653 72.588 111.921 69.7271 110.183ZM69.8802 115.496C70.0427 120.143 70.2767 124.678 70.5771 129.078C74.54 127.138 78.5875 125.073 82.6957 122.89C80.5602 121.704 78.4134 120.488 76.2581 119.245C74.1029 118.001 71.9762 116.751 69.8802 115.496ZM87.3762 125.454C81.7821 128.475 76.2827 131.288 70.9349 133.875C72.0422 147.542 73.7971 159.752 76.0181 169.74C77.9934 178.623 80.2848 185.507 82.6792 190.061C83.8788 192.343 84.992 193.822 85.9234 194.679C86.8306 195.514 87.2988 195.53 87.3775 195.53C87.4562 195.53 87.9244 195.514 88.8319 194.679C89.7632 193.822 90.8765 192.343 92.076 190.061C94.4702 185.507 96.7618 178.623 98.7369 169.74C100.958 159.752 102.713 147.543 103.82 133.876C98.4714 131.288 92.9712 128.475 87.3762 125.454ZM108.512 131.167C120.908 137.042 132.365 141.627 142.131 144.699C150.816 147.431 157.928 148.89 163.073 149.095C165.65 149.197 167.489 148.973 168.698 148.595C169.876 148.227 170.123 147.83 170.162 147.763C170.2 147.697 170.421 147.286 170.151 146.084C169.874 144.85 169.149 143.147 167.772 140.968C165.022 136.618 160.202 131.193 153.492 125.042C145.946 118.125 136.243 110.5 124.952 102.708C120.036 106.042 114.849 109.395 109.435 112.726C109.255 119.078 108.944 125.245 108.512 131.167ZM124.952 97.292C136.243 89.4995 145.946 81.8753 153.492 74.958C160.202 68.8072 165.022 63.3816 167.772 59.0322C169.149 56.853 169.874 55.1501 170.151 53.9161C170.421 52.7139 170.2 52.3027 170.162 52.2367C170.123 52.1701 169.876 51.7727 168.698 51.4046C167.489 51.0269 165.65 50.8027 163.073 50.9053C157.928 51.1103 150.816 52.5691 142.131 55.301C132.365 58.3731 120.908 62.9583 108.512 68.8329C108.944 74.7553 109.255 80.9216 109.435 87.2736C114.849 90.6047 120.036 93.9575 124.952 97.292ZM109.553 92.6062C113.499 95.0701 117.312 97.5403 120.974 100C117.312 102.46 113.499 104.93 109.553 107.394C109.593 104.952 109.613 102.487 109.613 100C109.613 97.5133 109.593 95.0476 109.553 92.6062ZM104.875 84.5062C104.713 79.8579 104.478 75.3217 104.178 70.9206C100.214 72.8611 96.1657 74.9265 92.0566 77.1099C94.1922 78.2963 96.339 79.5117 98.494 80.7553C100.65 81.9993 102.778 83.2503 104.875 84.5062ZM104.178 129.079C100.214 127.139 96.1657 125.073 92.0566 122.89C94.1922 121.704 96.339 120.488 98.494 119.245C100.65 118.001 102.778 116.75 104.875 115.494C104.713 120.142 104.478 124.678 104.178 129.079Z" fill="black"/>
<path fill-rule="evenodd" clip-rule="evenodd" d="M23.4611 71.9956C27.345 71.9956 30.4933 75.1455 30.4933 79.0309C30.4933 82.9165 27.345 86.0664 23.4611 86.0664C19.5775 86.0664 16.4292 82.9165 16.4292 79.0309C16.4292 75.1455 19.5775 71.9956 23.4611 71.9956Z" fill="black"/>
<path fill-rule="evenodd" clip-rule="evenodd" d="M135.223 47.9033C139.108 47.9033 142.258 51.0532 142.258 54.9388C142.258 58.8245 139.108 61.9743 135.223 61.9743C131.337 61.9743 128.187 58.8245 128.187 54.9388C128.187 51.0532 131.337 47.9033 135.223 47.9033Z" fill="black"/>
<path fill-rule="evenodd" clip-rule="evenodd" d="M73.2071 158.329C77.0928 158.329 80.2426 161.477 80.2426 165.361C80.2426 169.245 77.0928 172.393 73.2071 172.393C69.3215 172.393 66.1716 169.245 66.1716 165.361C66.1716 161.477 69.3215 158.329 73.2071 158.329Z" fill="black"/>
<path fill-rule="evenodd" clip-rule="evenodd" d="M86.9857 88.0366C93.5641 88.0366 98.897 93.3697 98.897 99.9481C98.897 106.527 93.5641 111.859 86.9857 111.859C80.4073 111.859 75.0742 106.527 75.0742 99.9481C75.0742 93.3697 80.4073 88.0366 86.9857 88.0366Z" fill="black"/>
</svg>
