<svg width="102" height="100" viewBox="0 0 102 100" fill="none" xmlns="http://www.w3.org/2000/svg">
<path fill-rule="evenodd" clip-rule="evenodd" d="M63.4122 29.4633L30.4746 61.7665C30.0498 60.9583 29.6666 60.1161 29.323 59.2428C28.1727 56.3076 27.5976 53.1936 27.5976 49.9048C27.5976 46.6132 28.1727 43.5002 29.323 40.5653C30.4746 37.629 32.0697 35.0816 34.1092 32.9193C36.1486 30.7585 38.5998 29.0494 41.4608 27.7908C44.3233 26.5335 47.4639 25.9041 50.884 25.9041C54.3056 25.9041 57.4636 26.5491 60.3567 27.8404C61.4322 28.3196 62.4507 28.8601 63.4122 29.4633ZM60.5055 72.2104C57.6434 73.469 54.5025 74.0971 51.0824 74.0971C47.6608 74.0971 44.5031 73.4522 41.6086 72.1621C40.5342 71.6816 39.5157 71.1412 38.556 70.5366L71.4921 38.2362C71.9166 39.043 72.3001 39.8837 72.6434 40.7584C73.7937 43.6936 74.3692 46.8076 74.3692 50.0978C74.3692 53.3881 73.7937 56.501 72.6434 59.4373C71.4921 62.3722 69.897 64.9196 67.8572 67.0806C65.8177 69.2415 63.368 70.9517 60.5055 72.2104ZM65.489 82.2262C69.897 80.3551 73.7125 77.8235 76.9357 74.6284C80.1589 71.4361 82.6577 67.7097 84.4341 63.4522C86.2111 59.1946 87.0992 54.6782 87.0992 49.9048C87.0992 45.13 86.2111 40.6136 84.4341 36.3546C83.3807 33.8296 82.084 31.4976 80.5449 29.3576L101.968 8.34836L93.4552 0L71.9671 21.0732C70.0381 19.7833 67.9437 18.6682 65.686 17.7268C61.278 15.8885 56.4106 14.968 51.0824 14.968C45.7531 14.968 40.8857 15.9042 36.4777 17.7752C32.0697 19.6462 28.2539 22.1778 25.0307 25.3715C21.8075 28.5651 19.3072 32.2915 17.5312 36.5491C15.7553 40.807 14.8671 45.323 14.8671 50.0978C14.8671 54.8713 15.7553 59.3862 17.5312 63.6456C18.5857 66.172 19.8823 68.5036 21.4214 70.645L0 91.6517L8.5126 100L29.9992 78.9279C31.9283 80.2181 34.0226 81.333 36.2804 82.2744C40.6888 84.113 45.5562 85.032 50.884 85.032C56.2133 85.032 61.0807 84.0958 65.489 82.2262Z" fill="black"/>
</svg>
