<svg width="570" height="100" viewBox="0 0 570 100" fill="none" xmlns="http://www.w3.org/2000/svg">
<path fill-rule="evenodd" clip-rule="evenodd" d="M63.3096 73.1204L55.4953 65.3484C52.5271 68.0683 49.5268 70.2226 46.492 71.81C43.4597 73.3957 39.8319 74.1885 35.612 74.1885C32.3141 74.1885 29.2644 73.5583 26.4617 72.2947C23.659 71.0315 21.2353 69.3 19.1907 67.0971C17.146 64.8952 15.5644 62.3212 14.442 59.3748C13.3209 56.4287 12.7617 53.2699 12.7617 49.9045C12.7617 46.5363 13.3209 43.3947 14.442 40.4797C15.5644 37.5665 17.146 35.025 19.1907 32.8546C21.2353 30.6857 23.659 28.9701 26.4617 27.7067C29.2644 26.4446 32.3141 25.8129 35.612 25.8129C39.5677 25.8129 43.0965 26.5901 46.1957 28.1445C49.2961 29.6975 52.2308 31.7382 54.9989 34.2637L62.8142 25.425C61.1661 23.8706 59.419 22.446 57.5719 21.1498C55.7261 19.8549 53.7148 18.737 51.5382 17.7986C49.3612 16.8589 46.971 16.1315 44.3657 15.6138C41.7607 15.0948 38.8751 14.8353 35.7106 14.8353C30.4349 14.8353 25.6209 15.7592 21.2687 17.6046C16.9151 19.4499 13.1568 21.9755 9.99105 25.1812C6.82529 28.3869 4.36958 32.1261 2.62121 36.4012C0.872848 40.6752 0 45.2412 0 50.0983C0 55.0196 0.890197 59.6175 2.6706 63.8925C4.45099 68.1651 6.90805 71.8729 10.0404 75.0142C13.1728 78.1544 16.8818 80.6315 21.1686 82.4455C25.4554 84.2592 30.1386 85.165 35.2156 85.165C38.4481 85.165 41.3988 84.8898 44.0694 84.3393C46.7402 83.7888 49.1971 82.9803 51.4392 81.9122C53.6816 80.8427 55.7756 79.5792 57.7214 78.1229C59.6658 76.6656 61.529 74.9974 63.3096 73.1204Z" fill="white"/>
<path fill-rule="evenodd" clip-rule="evenodd" d="M220.274 34.0893C220.274 31.8272 221.258 29.905 223.226 28.3228C225.193 26.738 227.949 25.9469 231.49 25.9469C234.639 25.9469 237.754 26.5458 240.836 27.741C243.92 28.9361 247.035 30.6648 250.182 32.9254L256.676 23.9123C253.136 21.1336 249.347 19.0179 245.313 17.5652C241.278 16.1111 236.737 15.3841 231.687 15.3841C228.277 15.3841 225.128 15.8522 222.258 16.7898C219.373 17.726 216.914 19.0663 214.864 20.8107C212.814 22.5563 211.207 24.6393 210.027 27.0623C208.863 29.4853 208.272 32.1829 208.272 35.155C208.272 38.3207 208.78 41.0027 209.797 43.1994C210.814 45.3964 212.306 47.2698 214.241 48.8209C216.175 50.3716 218.586 51.6635 221.438 52.698C224.308 53.7321 227.572 54.6673 231.261 55.508C234.476 56.2834 237.081 57.0262 239.099 57.7361C241.099 58.4475 242.673 59.2071 243.838 60.0139C244.984 60.8221 245.773 61.7097 246.199 62.6788C246.625 63.649 246.837 64.746 246.837 65.9739C246.837 68.6245 245.74 70.7246 243.543 72.2739C241.345 73.826 238.377 74.6003 234.639 74.6003C230.31 74.6003 226.439 73.8403 223.03 72.3225C219.618 70.8044 216.241 68.6245 212.895 65.7805L205.616 74.31C209.748 77.9923 214.241 80.7223 219.094 82.4996C223.948 84.2765 229.031 85.1645 234.343 85.1645C237.951 85.1645 241.264 84.7119 244.281 83.8083C247.28 82.9021 249.872 81.5777 252.003 79.8333C254.151 78.0888 255.824 75.9576 257.037 73.4378C258.234 70.918 258.841 68.0426 258.841 64.8114C258.841 61.9689 258.365 59.4973 257.414 57.3972C256.462 55.2975 255.052 53.4576 253.217 51.8729C251.379 50.2904 249.051 48.9489 246.264 47.8507C243.478 46.7536 240.263 45.752 236.655 44.8469C233.359 44.0716 230.654 43.3277 228.506 42.6174C226.375 41.9075 224.702 41.1321 223.472 40.2914C222.258 39.4517 221.424 38.547 220.963 37.5782C220.505 36.6077 220.274 35.4452 220.274 34.0893Z" fill="white"/>
<path fill-rule="evenodd" clip-rule="evenodd" d="M354.951 35.0502V83.5164H366.971V15.9341H354.062L333.075 47.8911L312.087 15.9341H299.18V83.5164H311.2V35.2429L332.778 66.9107H333.173L354.951 35.0502Z" fill="white"/>
<path fill-rule="evenodd" clip-rule="evenodd" d="M467.969 50.0986C467.969 53.4011 467.392 56.5255 466.242 59.473C465.088 62.4195 463.492 64.9763 461.452 67.1453C459.411 69.3147 456.958 71.0315 454.094 72.2947C451.231 73.5583 448.09 74.1888 444.668 74.1888C441.242 74.1888 438.083 73.5411 435.188 72.2464C432.293 70.95 429.807 69.2017 427.735 67.0012C425.662 64.7983 424.049 62.2243 422.895 59.2779C421.745 56.3318 421.168 53.2059 421.168 49.9045C421.168 46.6003 421.745 43.4758 422.895 40.5297C424.049 37.5822 425.644 35.025 427.685 32.855C429.725 30.6858 432.176 28.9702 435.039 27.7068C437.902 26.4447 441.046 25.8129 444.469 25.8129C447.891 25.8129 451.053 26.4604 453.948 27.7566C456.844 29.0514 459.329 30.7998 461.402 33.0015C463.475 35.202 465.088 37.7774 466.242 40.7238C467.392 43.6699 467.969 46.7958 467.969 50.0986ZM480.703 49.9045C480.703 45.1115 479.817 40.5783 478.04 36.3029C476.263 32.0304 473.795 28.3057 470.636 25.1327C467.474 21.9584 463.692 19.4499 459.279 17.6046C454.867 15.7592 449.999 14.8353 444.668 14.8353C439.333 14.8353 434.465 15.775 430.053 17.6531C425.644 19.5312 421.827 22.0724 418.6 25.2782C415.374 28.4839 412.874 32.2244 411.097 36.4984C409.32 40.7721 408.43 45.3056 408.43 50.0983C408.43 54.8899 409.32 59.422 411.097 63.6974C412.874 67.9724 415.342 71.696 418.501 74.8687C421.659 78.0418 425.445 80.5518 429.857 82.3969C434.266 84.2424 439.138 85.165 444.469 85.165C449.8 85.165 454.671 84.2253 459.08 82.3483C463.492 80.4703 467.31 77.9292 470.536 74.7222C473.763 71.5176 476.263 67.7773 478.04 63.5033C479.817 59.2293 480.703 54.6961 480.703 49.9045Z" fill="white"/>
<path fill-rule="evenodd" clip-rule="evenodd" d="M531.218 34.0893C531.218 31.8272 532.201 29.905 534.17 28.3228C536.14 26.738 538.893 25.9469 542.436 25.9469C545.584 25.9469 548.7 26.5458 551.78 27.741C554.864 28.9361 557.98 30.6648 561.128 32.9254L567.62 23.9123C564.081 21.1336 560.292 19.0179 556.257 17.5652C552.226 16.1111 547.682 15.3841 542.632 15.3841C539.22 15.3841 536.072 15.8522 533.202 16.7898C530.317 17.726 527.86 19.0663 525.809 20.8107C523.758 22.5563 522.152 24.6393 520.969 27.0623C519.808 29.4853 519.217 32.1829 519.217 35.155C519.217 38.3207 519.726 41.0027 520.741 43.1994C521.76 45.3964 523.252 47.2698 525.186 48.8209C527.119 50.3716 529.53 51.6635 532.383 52.698C535.253 53.7321 538.515 54.6673 542.204 55.508C545.42 56.2834 548.027 57.0262 550.043 57.7361C552.044 58.4475 553.618 59.2071 554.782 60.0139C555.929 60.8221 556.716 61.7097 557.144 62.6788C557.571 63.649 557.785 64.746 557.785 65.9739C557.785 68.6245 556.684 70.7246 554.487 72.2739C552.29 73.826 549.323 74.6003 545.584 74.6003C541.254 74.6003 537.383 73.8403 533.975 72.3225C530.563 70.8044 527.187 68.6245 523.84 65.7805L516.561 74.31C520.691 77.9923 525.186 80.7223 530.04 82.4996C534.893 84.2765 539.975 85.1645 545.288 85.1645C548.896 85.1645 552.208 84.7119 555.224 83.8083C558.226 82.9021 560.815 81.5777 562.948 79.8333C565.096 78.0888 566.769 75.9576 567.98 73.4378C569.177 70.918 569.786 68.0426 569.786 64.8114C569.786 61.9689 569.308 59.4973 568.358 57.3972C567.407 55.2975 565.997 53.4576 564.159 51.8729C562.325 50.2904 559.996 48.9489 557.208 47.8507C554.423 46.7536 551.207 45.752 547.6 44.8469C544.306 44.0716 541.599 43.3277 539.452 42.6174C537.319 41.9075 535.648 41.1321 534.416 40.2914C533.202 39.4517 532.369 38.547 531.909 37.5782C531.45 36.6077 531.218 35.4452 531.218 34.0893Z" fill="white"/>
<path fill-rule="evenodd" clip-rule="evenodd" d="M145.771 29.4633L112.833 61.7665C112.408 60.9583 112.025 60.1161 111.681 59.2428C110.531 56.3076 109.956 53.1936 109.956 49.9048C109.956 46.6132 110.531 43.5002 111.681 40.5653C112.833 37.629 114.428 35.0816 116.467 32.9193C118.507 30.7585 120.958 29.0494 123.819 27.7908C126.682 26.5335 129.822 25.9041 133.242 25.9041C136.664 25.9041 139.822 26.5491 142.715 27.8404C143.791 28.3196 144.809 28.8601 145.771 29.4633ZM142.864 72.2104C140.002 73.469 136.861 74.0971 133.441 74.0971C130.019 74.0971 126.861 73.4522 123.967 72.1621C122.893 71.6816 121.874 71.1412 120.914 70.5366L153.85 38.2362C154.275 39.043 154.658 39.8837 155.002 40.7584C156.152 43.6936 156.727 46.8076 156.727 50.0978C156.727 53.3881 156.152 56.501 155.002 59.4373C153.85 62.3722 152.255 64.9196 150.216 67.0806C148.176 69.2415 145.726 70.9517 142.864 72.2104ZM147.847 82.2262C152.255 80.3551 156.071 77.8235 159.294 74.6284C162.517 71.4361 165.016 67.7097 166.792 63.4522C168.569 59.1946 169.458 54.6782 169.458 49.9048C169.458 45.13 168.569 40.6136 166.792 36.3546C165.739 33.8296 164.442 31.4976 162.903 29.3576L184.326 8.34836L175.814 0L154.325 21.0732C152.396 19.7833 150.302 18.6682 148.044 17.7268C143.636 15.8885 138.769 14.968 133.441 14.968C128.111 14.968 123.244 15.9042 118.836 17.7752C114.428 19.6462 110.612 22.1778 107.389 25.3715C104.166 28.5651 101.666 32.2915 99.8896 36.5491C98.1136 40.807 97.2255 45.323 97.2255 50.0978C97.2255 54.8713 98.1136 59.3862 99.8896 63.6456C100.944 66.172 102.241 68.5036 103.78 70.645L82.3583 91.6517L90.8709 100L112.358 78.9279C114.287 80.2181 116.381 81.333 118.639 82.2744C123.047 84.113 127.914 85.032 133.242 85.032C138.572 85.032 143.439 84.0958 147.847 82.2262Z" fill="white"/>
</svg>
